<?xml version="1.0" standalone="no"?><!DOCTYPE svg PUBLIC "-//W3C//DTD SVG 1.1//EN" "http://www.w3.org/Graphics/SVG/1.1/DTD/svg11.dtd" [<!ENTITY nbsp " ">]><svg data-noselect="" viewBox="-5.354341057927996 63.801147128030806 612.5523552952379 459.4142664714284" width="612.5523552952379" ref="svg_canvas" height="459.4142664714284" preserveAspectRatio="none" version="1.1" xmlns="http://www.w3.org/2000/svg" style="background: rgba(255, 255, 255, 0);">
    <def></def>
    <g id="shape_RjeoWMNiCZ" ref="shape_RjeoWMNiCZ" key="shape_RjeoWMNiCZ" transform="translate(74.645658942072,191.38107005774) rotate(0,104.81636780168,97.846079342867) scale(1,1)" style="cursor:move;display:inline;opacity:1;" filter="">
            <g style="display:inline"><rect fill="rgba(0,0,0,0)" width="229.63273560336" height="215.69215868573" x="-10" y="-10"></rect><svg version="1.1" id="图层_1" xmlns="http://www.w3.org/2000/svg" xmlns:xlink="http://www.w3.org/1999/xlink" x="0px" y="0px" width="209.63273560336" height="195.69215868573" viewBox="0 0 200 186.7" style="enable-background:new 0 0 200 186.7;" xml:space="preserve" class="style-removed" preserveAspectRatio="none" data-parent="shape_RjeoWMNiCZ">

<g>
	
		<rect x="24.3" y="24.3" transform="matrix(0.7071 0.7071 -0.7071 0.7071 82.8427 -34.3146)" width="117.2" height="117.2" fill="#35B2FF" stroke-width="0"></rect>
	<rect x="45.7" y="34.1" transform="matrix(0.866 -0.5 0.5 0.866 -32.3614 64.5574)" width="117.2" height="117.2" fill="#3482F6" stroke-width="0"></rect>
	
		<rect x="65.7" y="49.4" transform="matrix(0.9659 -0.2588 0.2588 0.9659 -23.7033 35.8401)" width="117.2" height="117.2" fill="#1C5CBC" stroke-width="0"></rect>
	<rect x="82.8" y="69.5" width="117.2" height="117.2" fill="#123D7F" stroke-width="0"></rect>
</g>
</svg></g>
        </g><g id="shape_xILFs9B9XB" ref="shape_xILFs9B9XB" key="shape_xILFs9B9XB" transform="translate(51.74078245691,-133.80450933025) rotate(0,214.20652908929,453.417282448634) scale(1,1)" style="cursor:move;display:inline;opacity:1;" filter="">
            <g style="display:inline"><svg xmlns="http://www.w3.org/2000/svg" version="1.1" xmlns:xlink="http://www.w3.org/1999/xlink" width="597.44" height="907.8800000000001" viewBox="0 0 597.44 907.8800000000001" preserveAspectRatio="none" data-parent="shape_xILFs9B9XB"><rect fill="rgba(0,0,0,0)" width="94" height="151" x="125.86" y="378.44"></rect><g data-width="93.38812" transform="translate(126.16594, 0)"><path d="M5.16-86.59L58.15-86.59Q66.33-86.59 73.25-82.56Q80.17-78.54 84.20-71.61Q88.23-64.69 88.23-56.51L88.23-56.51L88.23-30.08Q88.23-21.90 84.20-14.98Q80.17-8.06 73.25-4.03Q66.33 0 58.15 0L58.15 0L5.16 0L5.16-86.59ZM51.48-13.59Q55.88-13.59 59.72-15.80Q63.56-18.00 65.76-21.84Q67.96-25.68 67.96-30.08L67.96-30.08L67.96-56.51Q67.96-61.04 65.76-64.88Q63.56-68.72 59.72-70.92Q55.88-73.12 51.48-73.12L51.48-73.12L25.30-73.12L25.30-13.59L51.48-13.59Z" transform="translate(0 503.44) " fill="rgb(255, 255, 255)" stroke="rgb(255, 255, 255)" stroke-width="0.21" data-glyph-w="93.38812" data-glyph-h="151.032" data-glyph-ascender="125.86" data-glyph-descender="-25.172"></path></g></svg></g>
        </g><g id="shape_yivoiQRHn2" ref="shape_yivoiQRHn2" key="shape_yivoiQRHn2" transform="translate(272.86801423731004,259.93871604725) rotate(0,241.38708903416,112.49) scale(1,1)" style="cursor:move;display:inline;opacity:1;" filter="">
            <g style="display:inline"><svg xmlns="http://www.w3.org/2000/svg" version="1.1" xmlns:xlink="http://www.w3.org/1999/xlink" width="348.32" height="224.98000000000002" viewBox="0 0 348.32 224.98000000000002" preserveAspectRatio="none" data-parent="shape_yivoiQRHn2"><rect fill="rgba(0,0,0,0)" width="223" height="37" x="31.33" y="93.99"></rect><g data-width="222.01783428224928" transform="translate(31.33, 0)"><path d="M24.72 0.03L0.69 0.03L0.69-1.07L0.69-22.59L1.44-22.59L5.01-22.59L23.81-22.59L23.81-22.62L28.13-22.62L28.13-3.41Q28.13-2.69 27.87-2.07Q27.60-1.44 27.13-0.97Q26.66-0.50 26.04-0.23Q25.41 0.03 24.72 0.03L24.72 0.03ZM23.81-19.49L5.01-19.49L5.01-3.07L22.81-3.07Q23.25-3.07 23.53-3.35Q23.81-3.63 23.81-4.04L23.81-4.04L23.81-19.49ZM6.55-7.05L6.55-9.02L22.37-8.05L22.37-6.11L6.55-7.05ZM6.55-4.32L6.55-6.45L22.37-5.48L22.37-3.35L6.55-4.32ZM6.27-9.05L6.27-11.56Q7.21-11.65 8.10-11.75Q8.99-11.84 9.84-12.00L9.84-12.00Q8.96-12.53 8.19-13.19Q7.43-13.85 6.77-14.69L6.77-14.69L11.34-14.69Q12.06-14.16 12.80-13.79Q13.53-13.41 14.32-13.10L14.32-13.10Q16.39-13.85 18.17-15.35L18.17-15.35L10.53-15.35L8.52-15.35L6.55-15.35L8.02-18.92L12.00-18.92L11.65-18.08L22.37-18.08L22.37-15.35Q21.65-14.26 20.74-13.44Q19.83-12.63 18.83-12.00L18.83-12.00Q19.64-11.84 20.54-11.75Q21.43-11.65 22.37-11.56L22.37-11.56L22.37-9.05Q20.21-9.21 18.19-9.46Q16.17-9.71 14.32-10.18L14.32-10.18Q12.47-9.71 10.45-9.46Q8.43-9.21 6.27-9.05L6.27-9.05Z" transform="translate(0 122.99) " fill="rgb(181, 181, 182)" stroke="rgb(181, 181, 182)" stroke-width="0.052" data-glyph-w="31.35877632603561" data-glyph-h="31.33" data-glyph-ascender="26.912469999999995" data-glyph-descender="-4.417529999999999"></path><path d="M10.78 0.06L10.78-9.12L1.88-9.12L1.88-12.38L10.78-12.38L10.78-17.14L2.82-17.14L2.82-20.40L10.78-20.40L10.78-22.62L15.01-22.62L15.01-20.40L23.00-20.40L22.06-22.62L26.44-22.62L28.35-18.20L26.38-18.20L26.38-12.38L29.42-12.38L29.42-3.16Q29.42-1.91 28.54-1.03L28.54-1.03Q27.60-0.16 26.38-0.16L26.38-0.16L21.84-0.16L23.28-3.41L24.53-3.41Q24.78-3.41 25.00-3.60L25.00-3.60Q25.19-3.82 25.19-4.07L25.19-4.07L25.19-9.12L15.01-9.12L15.01 0.06L10.78 0.06ZM15.01-17.14L15.01-12.38L22.15-12.38L22.15-17.14L15.01-17.14Z" transform="translate(31.35877632603561 122.99) " fill="rgb(181, 181, 182)" stroke="rgb(181, 181, 182)" stroke-width="0.052" data-glyph-w="33.865176326035616" data-glyph-h="31.33" data-glyph-ascender="26.912469999999995" data-glyph-descender="-4.417529999999999"></path><path d="M12.06-16.70L12.06-21.46L17.39-21.46L16.89-22.59L21.71-22.59L22.21-21.46L25.22-21.46Q26.47-21.46 27.35-20.60Q28.23-19.74 28.23-18.48L28.23-18.48L28.23-16.70L23.87-16.70L23.87-17.64Q23.87-17.95 23.67-18.17Q23.47-18.39 23.15-18.39L23.15-18.39L16.39-18.39L16.39-16.70L12.06-16.70ZM24.41-8.33L16.70-8.33L16.70-7.33L23.50-7.33L27.38-7.33L27.82-7.33L27.82-3.41Q27.82-2.69 27.55-2.07Q27.29-1.44 26.82-0.97Q26.35-0.50 25.72-0.23Q25.10 0.03 24.41 0.03L24.41 0.03L16.70 0.03L15.20 0.03L12.38 0.03L12.38-15.51L15.01-15.51L16.70-15.51L23.50-15.51L27.38-15.51L27.82-15.51L27.82-11.78Q27.82-11.06 27.55-10.43Q27.29-9.81 26.82-9.34Q26.35-8.87 25.72-8.60Q25.10-8.33 24.41-8.33L24.41-8.33ZM23.50-12.66L16.70-12.66L16.70-11.18L22.49-11.18Q22.93-11.18 23.22-11.47Q23.50-11.75 23.50-12.16L23.50-12.16L23.50-12.66ZM23.50-4.48L16.70-4.48L16.70-2.82L22.49-2.82Q22.93-2.82 23.22-3.10Q23.50-3.38 23.50-3.79L23.50-3.79L23.50-4.48ZM6.45-3.07L11.06-3.07L9.71 0.03L4.76 0.03Q4.04 0.03 3.43-0.23Q2.82-0.50 2.35-0.97Q1.88-1.44 1.61-2.05Q1.35-2.66 1.35-3.38L1.35-3.38L1.35-16.51L5.45-16.51L5.45-4.04Q5.45-3.63 5.73-3.35Q6.02-3.07 6.45-3.07L6.45-3.07ZM6.89-18.42L0.56-18.42L2.41-22.59L6.64-22.59L6.05-21.30L11.75-21.30L10.28-13.57L6.05-13.57L6.89-18.42Z" transform="translate(65.22395265207123 122.99) " fill="rgb(181, 181, 182)" stroke="rgb(181, 181, 182)" stroke-width="0.052" data-glyph-w="31.35877632603561" data-glyph-h="31.33" data-glyph-ascender="26.912469999999995" data-glyph-descender="-4.417529999999999"></path><path d="M16.54-16.60L24.84-16.60Q25.53-16.60 26.14-16.34Q26.76-16.07 27.19-15.62Q27.63-15.16 27.90-14.55Q28.17-13.94 28.17-13.25L28.17-13.25L28.17-12.69L25.97-12.69L25.97-10.97L25.97-9.62Q25.97-8.62 25.25-7.90Q24.53-7.17 23.53-7.17L23.53-7.17L7.33-7.17L7.33-6.08L25.97-6.08L25.97-5.61L25.97-3.73L25.97-2.41Q25.97-1.91 25.78-1.47Q25.60-1.03 25.27-0.70Q24.94-0.38 24.48-0.19Q24.03 0 23.53 0L23.53 0L3.07 0L3.07-2.29L3.07-3.73L3.07-6.08L3.07-7.17L3.07-9.49L3.07-10.97L3.07-12.69L0.66-12.69L0.66-16.60L11.81-16.60L11.34-17.45L16.07-17.45L16.54-16.60ZM21.71-3.73L7.33-3.73L7.33-2.29L21.21-2.29Q21.71-2.29 21.71-2.79L21.71-2.79L21.71-3.73ZM12.22-14.51L4.95-14.51L4.95-13.28L23.87-13.28L23.87-13.69Q23.87-14.04 23.64-14.27Q23.40-14.51 23.06-14.51L23.06-14.51L16.51-14.51L12.22-14.51ZM21.71-9.99L21.71-10.97L7.33-10.97L7.33-9.49L21.21-9.49Q21.71-9.49 21.71-9.99L21.71-9.99ZM13.75-21.68L13.75-19.55L10.84-19.55L11.65-18.05L8.02-18.05L7.17-19.55L5.67-19.55L4.98-18.05L0.66-18.05L2.79-22.56L7.08-22.56L6.67-21.68L13.75-21.68ZM16.73-22.56L21.05-22.56L20.62-21.68L27.70-21.68L27.70-19.55L24.78-19.55L25.63-18.05L21.96-18.05L21.12-19.55L19.61-19.55L18.92-18.05L14.60-18.05L16.73-22.56Z" transform="translate(96.58272897810684 122.99) " fill="rgb(181, 181, 182)" stroke="rgb(181, 181, 182)" stroke-width="0.052" data-glyph-w="31.35877632603561" data-glyph-h="31.33" data-glyph-ascender="26.912469999999995" data-glyph-descender="-4.417529999999999"></path><path d="M28.10-2.51L28.10 0.06L11.78 0.06L11.78-2.51L17.76-2.51L17.76-5.39L12.00-5.39L12.00-8.02L17.76-8.02L17.76-10.06L15.85-10.06L12.56-10.06L11.87-10.06L11.87-22.65L12.56-22.65L15.85-22.65L28.01-22.65L28.01-13.50Q28.01-12.78 27.74-12.16Q27.48-11.53 27.01-11.06Q26.54-10.59 25.91-10.32Q25.28-10.06 24.56-10.06L24.56-10.06L22.12-10.06L22.12-8.02L27.85-8.02L27.85-5.39L22.12-5.39L22.12-2.51L28.10-2.51ZM24.00-13.63L24.00-15.13L22.12-15.13L22.12-12.63L23.03-12.63Q23.43-12.63 23.72-12.91Q24.00-13.19 24.00-13.63L24.00-13.63ZM24.00-17.70L24.00-20.08L22.12-20.08L22.12-17.70L24.00-17.70ZM17.76-20.08L15.85-20.08L15.85-17.70L17.76-17.70L17.76-20.08ZM15.85-12.63L17.76-12.63L17.76-15.13L15.85-15.13L15.85-12.63ZM0.69-19.49L0.69-22.59L10.75-22.59L10.75-19.49L7.90-19.49L7.90-13.72L10.46-13.72L10.46-10.62L7.90-10.62L7.90-3.01L10.75-3.01L10.75 0.09L0.69 0.09L0.69-3.01L3.54-3.01L3.54-10.62L1.00-10.62L1.00-13.72L3.54-13.72L3.54-19.49L0.69-19.49Z" transform="translate(127.94150530414245 122.99) " fill="rgb(181, 181, 182)" stroke="rgb(181, 181, 182)" stroke-width="0.052" data-glyph-w="31.35877632603561" data-glyph-h="31.33" data-glyph-ascender="26.912469999999995" data-glyph-descender="-4.417529999999999"></path><path d="M7.17-5.95L4.82 0L0.75 0L3.07-5.95L7.17-5.95ZM21.74-5.95L25.85-5.95L28.17 0L24.06 0L21.74-5.95ZM0.66-17.54L0.66-21.09L28.17-22.59L28.17-19.05L16.42-18.39L12.19-15.63L13.50-15.63L14.79-15.63L20.15-15.63L12.19-10.46L21.43-10.46L19.74-12.91L24.25-12.91L28.17-7.27L26.25-7.27L23.65-7.27L17.76-7.27L17.76-3.41Q17.76-2.69 17.48-2.07Q17.20-1.44 16.73-0.97Q16.26-0.50 15.63-0.23Q15.01 0.03 14.32 0.03L14.32 0.03L8.02 0.03L9.74-3.16L11.81-3.16Q12.22-3.16 12.50-3.45Q12.78-3.73 12.78-4.17L12.78-4.17L12.78-7.27L7.27-7.27L0.75-7.27L0.66-7.27L8.62-12.44L7.27-12.44L2.16-12.44L0.66-12.44L9.18-18.01L0.66-17.54Z" transform="translate(159.30028163017806 122.99) " fill="rgb(181, 181, 182)" stroke="rgb(181, 181, 182)" stroke-width="0.052" data-glyph-w="31.35877632603561" data-glyph-h="31.33" data-glyph-ascender="26.912469999999995" data-glyph-descender="-4.417529999999999"></path><path d="M28.17-20.33L28.17-17.23L17.17-17.23L15.48-13.13L23.22-13.13L22.46-15.35L26.10-15.35L28.07-9.68L24.41-9.68L24.25-10.12L23.75-10.12L23.75-4.07Q23.75-3.63 24.03-3.35Q24.31-3.07 24.75-3.07L24.75-3.07L27.82-3.07L26.44 0.03L22.62 0.03Q21.43 0.03 20.62-0.80Q19.80-1.63 19.80-2.82L19.80-2.82L19.80-10.12L16.89-10.12L14.94 0.03L10.81 0.03L12.75-10.12L9.56-10.12L12.59-17.23L10.59-17.23L10.59-20.33L17.42-20.33L16.39-22.62L21.34-22.62L22.34-20.33L28.17-20.33ZM9.68-4.32L0.66-4.32L4.35-12.09L0.66-12.09L5.29-22.15L10.15-22.15L6.55-14.91L7.27-14.91L9.68-14.91L6.17-7.17L9.68-7.17L9.68-4.32ZM0.66 0.03L0.66-2.82L9.68-2.82L9.68 0.03L0.66 0.03Z" transform="translate(190.65905795621367 122.99) " fill="rgb(181, 181, 182)" stroke="rgb(181, 181, 182)" stroke-width="0.052" data-glyph-w="31.35877632603561" data-glyph-h="31.33" data-glyph-ascender="26.912469999999995" data-glyph-descender="-4.417529999999999"></path></g></svg></g>
        </g><g id="shape_FDBi16VXUI" ref="shape_FDBi16VXUI" key="shape_FDBi16VXUI" transform="translate(197.28817908424003,-46.95644850375001) rotate(0,316.96692418722,360) scale(1,1)" style="cursor:move;display:inline;opacity:1;" filter="">
            <g style="display:inline"><svg xmlns="http://www.w3.org/2000/svg" version="1.1" xmlns:xlink="http://www.w3.org/1999/xlink" width="541" height="720" viewBox="0 0 541 720" preserveAspectRatio="none" data-parent="shape_FDBi16VXUI"><rect fill="rgba(0,0,0,0)" width="141" height="120" x="100" y="300"></rect><g data-width="140.10000000000002" transform="translate(100, 0)"><path d="M6.80 0L6.80-66.70L35.10-66.70Q45.70-66.70 51.50-64.60L51.50-64.60Q62.20-60.70 65.80-50.30L65.80-50.30Q68.50-42.30 68.50-33.20L68.50-33.20Q68.50-24.20 65.90-16.20L65.90-16.20Q63.30-8 57.30-4.10L57.30-4.10Q53.50-1.70 48.95-0.85Q44.40 0 35.10 0L35.10 0L6.80 0ZM35.10-54.80L21-54.80L21-11.90L35.10-11.90Q44.40-11.90 48-16L48-16Q50.20-18.60 51.55-23.30Q52.90-28 52.90-33.30L52.90-33.30Q52.90-39.20 51.30-44.10Q49.70-49 47.10-51.40L47.10-51.40Q43.30-54.80 35.10-54.80L35.10-54.80Z" transform="translate(0 395) " fill="#3482F6" stroke="#3482F6" stroke-width="0.167" data-glyph-w="71.60000000000001" data-glyph-h="100" data-glyph-ascender="85.9" data-glyph-descender="-14.100000000000001"></path><path d="M43.80-23.30L21-23.30L21 0L6.80 0L6.80-66.70L40.10-66.70Q49.20-66.70 53.10-65.40L53.10-65.40Q59.70-63.20 63.50-56.30L63.50-56.30Q66.30-51.10 66.30-45L66.30-45Q66.30-39.90 64.45-35.35Q62.60-30.80 59.30-27.90L59.30-27.90Q56.30-25.30 52.95-24.30Q49.60-23.30 43.80-23.30L43.80-23.30ZM21-54.80L21-35.20L40.30-35.20Q45.50-35.20 47.60-36.80L47.60-36.80Q50.70-39.30 50.70-45.50L50.70-45.50Q50.70-52.20 46-54.10L46-54.10Q44.30-54.80 40.60-54.80L40.60-54.80L21-54.80Z" transform="translate(71.60000000000001 395) " fill="#3482F6" stroke="#3482F6" stroke-width="0.167" data-glyph-w="68.5" data-glyph-h="100" data-glyph-ascender="85.9" data-glyph-descender="-14.100000000000001"></path></g></svg></g>
        </g>
  </svg>